<svg height="512pt" viewBox="-1 0 512 512.001" width="512pt" xmlns="http://www.w3.org/2000/svg"><path d="m119.765625 204.601562c0 46.777344 38.054687 84.832032 84.832031 84.832032 11.027344 0 19.960938 8.9375 19.960938 19.960937 0 11.027344-8.933594 19.960938-19.960938 19.960938-68.789062 0-124.753906-55.964844-124.753906-124.753907 0-68.792968 55.964844-124.757812 124.753906-124.757812 68.792969 0 124.757813 55.964844 124.757813 124.757812 0 11.023438-8.9375 19.960938-19.960938 19.960938-11.023437 0-19.960937-8.9375-19.960937-19.960938 0-46.777343-38.058594-84.835937-84.835938-84.835937s-84.832031 38.058594-84.832031 84.835937zm15.683594 176.550782c-51.222657-56.089844-95.457031-104.535156-95.527344-176.746094.105469-90.695312 73.980469-164.484375 164.675781-164.484375 90.699219 0 164.570313 73.789063 164.675782 164.484375.015624 11.019531 8.949218 19.941406 19.960937 19.9375h.023437c11.023438-.011719 19.953126-8.960938 19.9375-19.984375-.0625-54.601563-21.371093-105.921875-60.003906-144.511719-38.632812-38.59375-89.984375-59.847656-144.59375-59.847656-54.605468 0-105.957031 21.253906-144.59375 59.847656-38.628906 38.589844-59.941406 89.910156-60.003906 144.554688.0390625 39.777344 11.085938 77.097656 33.777344 114.09375 19.644531 32.035156 45.167968 59.984375 72.191406 89.578125 26.492188 29.015625 53.890625 59.015625 75.769531 93.632812 3.796875 6.007813 10.269531 9.296875 16.890625 9.296875 3.648438 0 7.335938-.996094 10.648438-3.089844 9.316406-5.890624 12.097656-18.21875 6.207031-27.539062-23.765625-37.597656-52.371094-68.925781-80.035156-99.222656zm370.320312 9.578125c-3.9375 4.308593-9.328125 6.492187-14.734375 6.492187-4.8125 0-9.636718-1.726562-13.464844-5.226562l-2.5-2.285156v66.050781c0 31.011719-25.210937 56.238281-56.195312 56.238281h-112.171875c-30.984375 0-56.195313-25.226562-56.195313-56.238281v-65.136719l-1.5 1.371094c-8.136718 7.441406-20.761718 6.875-28.203124-1.261719-7.4375-8.136719-6.871094-20.765625 1.265624-28.203125l103.027344-94.195312c21.773438-19.902344 54.609375-19.902344 76.378906 0l66.011719 60.355468c.730469.578125 1.417969 1.207032 2.058594 1.878906l34.960937 31.960938c8.136719 7.4375 8.703126 20.066406 1.261719 28.199219zm-70.621093-37.519531-60.609376-55.410157c-6.414062-5.863281-16.085937-5.863281-22.5 0l-61.609374 56.320313v101.640625c0 8.996093 7.300781 16.316406 16.277343 16.316406h112.167969c8.972656 0 16.273438-7.320313 16.273438-16.316406zm0 0"/></svg>