<?xml version="1.0" encoding="iso-8859-1"?>
<!-- Generator: Adobe Illustrator 16.0.0, SVG Export Plug-In . SVG Version: 6.00 Build 0)  -->
<!DOCTYPE svg PUBLIC "-//W3C//DTD SVG 1.1//EN" "http://www.w3.org/Graphics/SVG/1.1/DTD/svg11.dtd">
<svg version="1.1" id="Capa_1" xmlns="http://www.w3.org/2000/svg" xmlns:xlink="http://www.w3.org/1999/xlink" x="0px" y="0px"
	 width="34.262px" height="34.261px" viewBox="0 0 34.262 34.261" style="enable-background:new 0 0 34.262 34.261;"
	 xml:space="preserve">
<g>
	<path d="M25.972,21.712c-2.18-0.51-4.961-1.842-5.971-3.496c-0.562-0.924-0.623-1.96-0.166-2.851
		c0.023-0.047,0.067-0.118,0.102-0.175c-0.024-0.197,0.021-0.456,0.162-0.792c0.009-0.023,0.01-0.028,0.016-0.041H8.925
		c0.006,0.012,0.006,0.012,0.013,0.028c0,0,0.001,0,0.001,0.001c0.251,0.394,0.471,0.742,0.588,0.968
		c0.463,0.9,0.402,1.938-0.16,2.859c-1.01,1.656-3.795,2.99-5.973,3.498L2.792,31.81c-0.064,1.105,0.66,2.013,1.612,2.013h20.558
		c0.953,0,1.679-0.905,1.612-2.013L25.972,21.712z M11.322,28.667h-1.93c-0.356,0-0.644-0.289-0.644-0.645s0.287-0.645,0.644-0.645
		h1.93c0.354,0,0.644,0.289,0.644,0.645S11.677,28.667,11.322,28.667z M11.322,26.212h-1.93c-0.356,0-0.644-0.289-0.644-0.645
		s0.287-0.643,0.644-0.643h1.93c0.354,0,0.644,0.285,0.644,0.643C11.966,25.923,11.677,26.212,11.322,26.212z M11.322,23.757h-1.93
		c-0.356,0-0.644-0.288-0.644-0.644c0-0.354,0.287-0.645,0.644-0.645h1.93c0.354,0,0.644,0.288,0.644,0.645
		C11.966,23.469,11.677,23.757,11.322,23.757z M15.648,28.667h-1.931c-0.355,0-0.644-0.289-0.644-0.645s0.287-0.645,0.644-0.645
		h1.931c0.356,0,0.646,0.289,0.646,0.645S16.005,28.667,15.648,28.667z M15.648,26.212h-1.931c-0.355,0-0.644-0.289-0.644-0.645
		s0.287-0.643,0.644-0.643h1.931c0.356,0,0.646,0.285,0.646,0.643C16.294,25.923,16.005,26.212,15.648,26.212z M15.648,23.757
		h-1.931c-0.355,0-0.644-0.288-0.644-0.644c0-0.354,0.287-0.645,0.644-0.645h1.931c0.356,0,0.646,0.288,0.646,0.645
		C16.294,23.469,16.005,23.757,15.648,23.757z M19.976,28.667h-1.93c-0.354,0-0.646-0.289-0.646-0.645s0.29-0.645,0.646-0.645h1.93
		c0.355,0,0.646,0.289,0.646,0.645S20.331,28.667,19.976,28.667z M19.976,26.212h-1.93c-0.354,0-0.646-0.289-0.646-0.645
		s0.29-0.643,0.646-0.643h1.93c0.355,0,0.646,0.285,0.646,0.643C20.62,25.923,20.331,26.212,19.976,26.212z M19.976,23.757h-1.93
		c-0.354,0-0.646-0.288-0.646-0.644c0-0.354,0.29-0.645,0.646-0.645h1.93c0.355,0,0.646,0.288,0.646,0.645
		C20.62,23.469,20.331,23.757,19.976,23.757z M27.607,10.141c0.009,0.177,0.049,0.356,0.021,0.534
		c-0.164,1.044-0.711,2.007-1.043,3.014c-0.431,1.284-6.949,0.309-6.541-1.367c0.154-0.62,0.912-2.413,0.851-3.047
		c-0.056-0.565-0.884-0.818-1.562-0.71c-1.797,0.279-4.019,0.951-5.888,1.414l0.001,0.003c-0.051,0.014-0.104,0.022-0.156,0.037
		c-0.052,0.011-0.104,0.025-0.156,0.038v-0.003c-1.873,0.44-4.155,0.853-5.885,1.42c-0.656,0.216-1.275,0.817-1.066,1.347
		c0.232,0.59,1.724,1.843,2.145,2.325c1.127,1.307-4.234,5.145-5.201,4.195c-0.754-0.743-1.679-1.353-2.301-2.207
		c-0.104-0.146-0.15-0.324-0.226-0.486c-1.81-3.684,0.591-8.466,5.55-10.091c1.895-0.622,3.809-1.176,5.736-1.679l-0.002-0.01
		c0.055-0.012,0.104-0.021,0.158-0.032c0.051-0.013,0.104-0.03,0.155-0.043l0.002,0.01c1.944-0.432,3.902-0.81,5.87-1.12
		C23.227,2.871,27.542,6.035,27.607,10.141z M33.261,14.423l-1.375-0.647c2.115-4.484,0.185-9.851-4.297-11.963l0.645-1.374
		C33.476,2.909,35.729,9.182,33.261,14.423z M30.888,13.305l-1.373-0.647c1.496-3.176,0.131-6.977-3.045-8.473l0.646-1.371
		C31.05,4.666,32.741,9.373,30.888,13.305z"/>
</g>
<g>
</g>
<g>
</g>
<g>
</g>
<g>
</g>
<g>
</g>
<g>
</g>
<g>
</g>
<g>
</g>
<g>
</g>
<g>
</g>
<g>
</g>
<g>
</g>
<g>
</g>
<g>
</g>
<g>
</g>
</svg>
